<?xml version="1.0" encoding="UTF-8"?>
<svg id="logo-text" xmlns="http://www.w3.org/2000/svg" viewBox="0 0 987.17 213.72" fill="currentColor">
  <g transform="translate(8 8)">
    <polygon id="A" points="197.72 0 197.72 197.72 148.29 197.72 148.29 49.44 0 197.72 0 127.82 127.82 0 197.72 0"/>
    <path id="R" d="M395.45,197.72h-52.43l-73.7-73.71,44.75-44.75c9.65-9.66,9.65-25.3,0-34.95-4.63-4.63-10.92-7.24-17.48-7.24h-61.79L197.72,0h98.86c16.39,0,32.1,6.51,43.7,18.09,24.12,24.13,24.12,63.25,0,87.39l-18.54,18.54,73.71,73.71Z"/>
    <polygon id="K-arms" points="593.17 153.17 593.17 197.72 444.88 98.86 593.17 0 593.17 44.56 511.71 98.86 593.17 153.17"/>
    <polygon id="K-stem" points="444.88 98.86 444.88 197.72 395.45 197.72 395.45 0 444.88 0 444.88 98.86"/>
    <path id="three" d="M633.17,0.00H760.98A27.19,27.19 0 0 1 788.17,27.19V81.56H682.77V116.16H788.17V170.53A27.19,27.19 0 0 1 760.98,197.72H633.17V148.29H738.74V123.58H682.77V74.14H738.74V49.43H633.17Z"/>
    <path id="two" d="M816.17,0.00H943.98A27.19,27.19 0 0 1 971.17,27.19V83.04L865.60,148.29H971.17V197.72H816.17V148.29L921.74,110.23V49.43H816.17Z"/>
  </g>
</svg>
